# xmcd CD database file
# Copyright (C) 1993-1998 Ti Kan
# 
# Track frame offsets:
#     150
#     16764
#     33071
# 
# Disc length: 725 seconds
# 
# Revision: 1
# Processed by: cddbd v1.4b41PL1 Copyright (c) Steve Scherf et al.
# Submitted via: DiscPlay 4.0.4
# 
DISCID=1102d303
DTITLE=Shania Twain - You're Still The One
DYEAR=1900
DGENRE=
TTITLE0=You're Still the One- Radio Edit w/intro
TTITLE1=You're Still The One- Album Version
TTITLE2=Don't Be Stupid- Dance Mix
EXTD=
EXTT0=
EXTT1=
EXTT2=
PLAYORDER=
